# xmcd
#
# Track frame offsets:
#	150
#	16640
#	39863
#	63113
#	83863
#	106611
#	124692
#	140588
#	158113
#	176958
#	200460
#	225252
#	247770
#	266520
#	282029
#
# Disc length: 4017 seconds
#
# Revision: 11
# Processed by: cddbd v1.5.2PL0 Copyright (c) Steve Scherf et al.
# Submitted via: EasyCDDAExtractor 15.3.0.1
#
DISCID=b10faf0f
DTITLE=Varios Artistas - Dance With Me
DYEAR=1998
DGENRE=Latin
TTITLE0=Sergio Mendes - Magalenha
TTITLE1=Gloria Estefan - Heaven's What I Feel (Dance Remix)
TTITLE2=Vanessa L. Williams and Chayanne - You Are My Home
TTITLE3=Electra - Jibaro (Dance With Me '98 Mix)
TTITLE4=Albita - Fiesta Pa' Los Rumberos
TTITLE5=Jon Secada - Want You, Miss You, Love You
TTITLE6=Black Machine - Jazz Machine
TTITLE7=Thalia - Echa Pa'lante (Spanish Cha-Cha Mix)
TTITLE8=DLG - Atrevete (No Puedes Conmigo)
TTITLE9=Ana Gabriel - Eres Todo En Mi (You're My Everything)
TTITLE10=Vanessa L. Williams and Chayanne - Refugio De Amor (You Are My Home) (S
TTITLE10=alsa)
TTITLE11=Gloria Estefan - Tres Deseos (12'' Remix)
TTITLE12=Ruben Blades - Patria
TTITLE13=Monica Naranjo - Pantera En Libertad
TTITLE14=Elvis Crespo - Suavemente (Tropical Spanglish Mix)
EXTD=
EXTT0=
EXTT1=
EXTT2=
EXTT3=
EXTT4=
EXTT5=
EXTT6=
EXTT7=
EXTT8=
EXTT9=
EXTT10=
EXTT11=
EXTT12=
EXTT13=
EXTT14=
PLAYORDER=
